<?xml version="1.0" encoding="iso-8859-1"?>
<!-- Generator: Adobe Illustrator 19.0.0, SVG Export Plug-In . SVG Version: 6.00 Build 0)  -->
<svg version="1.1" id="Capa_1" xmlns="http://www.w3.org/2000/svg" xmlns:xlink="http://www.w3.org/1999/xlink" x="0px" y="0px"
	 viewBox="0 0 120 120" style="enable-background:new 0 0 120 120;" xml:space="preserve">
<g id="_x30_502-fastfood">
	<g>
		<path style="fill-rule:evenodd;clip-rule:evenodd;" d="M119.98,53.196c-0.021-1.153-1.03-1.318-1.644-1.879
			c0.055-0.915-0.504-1.218-0.704-1.878c-0.72-0.298-1.236-0.8-1.879-1.175c-0.347-0.122-0.591-0.348-0.939-0.47
			c-0.142-0.405-1.114,0.019-1.173-0.469c0.628-4.459,1.807-8.367,2.347-12.914c0.404-1.223,0.438-3.587-0.469-4.226
			c-1.991-0.607-5.879,0.017-7.514-0.235c0.254-1.859,0.805-4.406,0.47-6.103c-0.385-0.556-1.614-0.265-2.113-0.704
			c-1.142-0.147-2.848,0.101-3.288,0.233c-0.212,0.065-0.485-0.04-0.704,0c-1.015,0.187-1.975,0.684-1.878,1.645
			c0.917,1.118,4.13-0.061,5.4,0.704c-0.102,1.776-0.877,2.881-0.705,4.931c-0.348,0.044-0.215,0.567-0.235,0.939
			c-0.219,0.25-0.866,0.072-0.704,0.704c0.399,0.228,0.603,0.648,0.469,1.409c-0.488,2.094-0.348,4.816-0.704,7.044
			c-0.023,2.828-0.146,4.476,0.235,7.043c0.17,0.718-0.24,0.856-0.235,1.409c-0.14,0.486,0.29,1.542-0.234,1.644
			c-0.908,0.126-1.146-0.42-2.113-0.234c-1.025-0.164-1.044,0.678-1.878,0.704c-0.361,0.813-0.209,2.141-0.235,3.287
			c-0.84,1.352-1.48,2.902-2.583,3.991c-1.017,1.173-1.994,2.389-3.521,3.052c-0.49-2.864-0.132-5.698,0-8.687
			c0.254-5.771-0.473-11.635-0.704-17.141c-0.365-0.834,0.798-0.142,0.704-0.704c0.514-0.034,0.505-0.592,0.47-1.174
			c-0.115-1.396-1.64-0.207-1.644-1.408c0.113-1.6-0.114-2.859-0.234-4.227c0.167-1.484-0.256-3.412,0-4.226
			c1.899-0.214,3.418-0.808,5.4-0.939v7.043c-0.101,0.759-1.531,0.19-1.174,1.409c0.021,0.762,1.401,0.165,1.174,1.174
			c0.164,5.486-0.239,10.404-0.235,15.731c0.033,1.61,0.35,2.939,1.878,3.052c0.367-0.338,0.818-0.592,0.94-1.174
			c0.505-0.198-0.089-1.496,0.469-1.644c-0.142-7.059,0.292-14.693-0.235-21.366c0.022-2.136,0.062-4.288-0.469-5.87
			c-0.868-0.775-2.517-0.771-4.227-0.704c-1.408,0.313-2.477,0.966-3.756,1.408c0.013-2.283-0.419-4.121-0.705-6.104
			C88.05,15,84.021,14.88,79.83,14.923c-0.661,0.277-1.19,0.688-1.644,1.175c-0.135,1.777,0.272,3.016,0.47,4.461
			c-0.15,0.944,0.306,2.496-0.234,3.052c-3.298-0.089-6.272,0.146-7.983,1.643c0.062,2.52-0.18,5.346,0.235,7.514
			c-0.944-0.23-2.061-0.288-3.287-0.234c-0.983,0.348-2.301,0.359-3.053,0.938c-0.624,0.003-1.341-0.089-1.643,0.235
			c0.09,0.794-1.039,0.369-0.705,1.408c-0.775,0.867,1.102,1.08,0.939,2.113c-0.054,2.95,0.649,5.143,0.939,7.748
			c0.127,1.36,0.254,2.72,0.47,3.992c-0.166,0.87,0.401,1.008,0.235,1.878c-0.331,0.821,0.658,1.503,0,1.878
			c-1.017-1.41-2.14-2.712-3.288-3.991c-0.798-0.454-1.6-0.904-2.113-1.644c-3.376-0.85-5.573-2.879-9.157-3.521
			c-0.619-0.398-1.34-0.695-2.348-0.705c-0.635-0.459-1.558-0.633-2.583-0.704c-1.555-0.558-3.616-0.61-5.4-0.939h-6.574
			c-7.053,0.696-12.746,2.751-18.08,5.166C9.972,49.079,5.444,52.3,2.817,57.42c-0.403,2.095-0.403,5.059,0.704,6.341
			c1.822,1.073,5.041,0.751,7.513,1.174h3.757c6.281,0.248,13.413,0.786,19.723,0.234c10.601-0.043,19.967-1.321,30.759-1.174
			c1.078-0.217,1.134,0.588,2.113,0.47c0.713-0.695,2.078-0.74,2.112-2.113c0.048-1.848-1.915-1.684-2.112-3.287
			c2.546,0.174,5.436-0.479,7.278-0.234c0.343,0.909,0.357,2.147,0.704,3.052c2.069,3.489,4.835,6.279,9.627,7.044h3.757
			c5.871-1.486,9.908-4.805,12.913-9.157c0.145-0.872,0.559-1.475,0.704-2.349c0.458-0.559-0.142-2.177,0.704-2.347
			c1.349,0.217,2.614,0.517,3.992,0.704h6.809c0.822,0.33,1.503-0.658,1.878,0c-2.371,5.378-4.507,10.99-5.87,17.375
			c-0.381,0.558-0.456,1.422-0.704,2.113c0,0.938-0.469,1.408-0.47,2.348c-0.403,1.553-0.756,3.158-0.938,4.931
			c-0.581,1.376-0.443,3.472-0.94,4.931c0.174,1.112-0.264,1.614-0.234,2.583c0.013,1.03-0.095,1.94-0.47,2.582
			c-10.538-0.284-19.245,1.263-29.35,1.409c-0.499-0.754,0.098-2.602-1.409-2.348c-1.599-0.19-0.3,2.517-1.878,2.348
			c-0.864-1.327,0.718-5.101-1.173-5.4c-2.216,0.211-1.404,3.448-1.644,5.636c-0.771,0.245-1.923,0.111-2.583,0.469
			c-0.52-0.812-0.79-1.87-1.174-2.817c0.379-0.559,0.844-1.035,1.174-1.644c0.68-0.337,0.429-1.605,1.174-1.878
			c0.557-1.4,1.555-2.359,1.409-4.462c-0.17-1.474-0.941-2.347-1.409-3.521c1.365-1.217,2.193-2.973,1.878-5.87
			c0.903-0.818,2.001-1.441,2.113-3.052c0.202-3.466-3.637-5.106-6.34-3.521c-0.243-0.854-0.924-1.269-1.643-1.645
			c-3.471,0.286-6.746,0.769-9.862,1.409c-7.545-0.047-14.381-0.803-21.601-1.174c-7.316,0.668-16.166-0.2-23.479,0.47
			c-2.495,0.009-5.374-0.365-5.635,1.878c-0.286,1.303,1.053,0.981,1.174,1.879C2.858,71.942,0.455,73.686,0,77.379
			c0.315,0.154,0.437,0.501,0.469,0.938c0.612,0.508,1.804,0.798,2.583,0.47c0.216,0.802,0.549,1.486,0.94,2.113
			c0.742-0.039,0.784,0.624,1.643,0.47c0.104,0.679,1.774-0.208,1.878,0.47c-3.098-0.202-4.244,1.548-5.4,3.287
			c-0.301,2.257,0.5,3.412,0.469,5.4c0.483,0.064,0.221,0.874,0.704,0.939c0.096,0.451,0.911,0.186,0.705,0.938
			c-0.925,1.245-1.41,3.492-1.174,5.4c0.225,1.824,1.353,3.067,2.113,3.991c7.403,2.85,18.742,1.764,27.47,3.287h7.279
			c3.601-0.625,7.427-1.024,11.036-1.643c0.967-0.186,1.205,0.36,2.113,0.234c4.043-0.336,8.375,0.912,11.74-0.234
			c0.368-0.57,0.875-1.004,0.704-2.113c1.477-0.715,2.303-2.08,3.052-3.522c1.418-0.087,2.595,0.065,3.756,0.235h4.931
			c7.754,0.613,15.135-1.13,23.244-0.939c0.742,0.114,0.83-0.424,1.645-0.235c2.768-0.205,6.575,0.627,7.982-0.938
			c-0.115-0.741,0.423-0.83,0.235-1.644c-0.297-0.407-0.794-0.615-0.704-1.409c1.337-2.498,2.067-5.602,2.582-8.923
			c0.554-0.385,0.2-1.679,0.704-2.112c-0.007-1.025,0.205-1.831,0.47-2.583c0-0.938,0.469-1.409,0.47-2.349
			c0.277-0.739,0.264-1.771,0.704-2.348c1.177-6.57,3.699-11.797,4.226-19.019C119.154,54.873,120.155,54.621,119.98,53.196z
			 M35.923,45.681c-0.04,0.68-1.509,1.137-1.409,0H35.923z M64.569,60.473h-6.81c-14.961,1.039-30.829,1.885-46.489,0.939H7.983
			c-0.48-0.219-1.558,0.178-2.113-0.469c-0.046-3.489,2.042-4.846,3.756-6.574c1.559-1.807,3.831-2.899,5.87-4.227
			c4.415-2.394,9.567-4.051,16.2-4.227c1.083-0.143,0.838,1.041,1.409,1.409c0.562,0.299,0.865,0.856,1.878,0.704
			c1.507,0.1,2.22-0.598,2.582-1.644c0.132-0.338,0.366-0.573,0.704-0.705c2.069,0.358,4.496,0.357,6.34,0.94
			c1.891,0.456,3.692,1.003,5.4,1.643c1.832,0.595,3.392,1.461,5.166,2.113c1.453,0.895,2.932,1.764,4.696,2.348
			c0.958,1.233,1.886,2.498,2.583,3.992c0.555,0.54,0.751,1.44,1.173,2.113C64.022,59.281,64.992,59.932,64.569,60.473z
			 M67.62,55.542c-0.042-3.636-0.857-6.499-0.938-10.095c-0.514-0.426-0.04-1.84-0.47-2.349c-0.192-0.747-0.15-1.729-0.47-2.348
			c-0.057-1.604-0.521-2.899-1.173-4.227c1.644-1.017,4.377-0.944,5.87-2.113c0.2-0.043,0.222,0.092,0.235,0.235
			c0.428,6.537-0.043,13.973,0.469,20.427C70.186,55.447,69.021,55.614,67.62,55.542z M81.709,62.822
			c-1.969-0.927-2.481-3.311-3.992-4.696c-0.028-0.676,0.128-1.537-0.235-1.878c-0.636-0.693-1.957-0.705-3.051-0.938
			c-0.107-2.79,0.243-6.035-0.235-8.453v-6.104c-0.304-2.279-0.284-4.883-0.47-7.279c-0.26-0.992-0.271-2.233-0.235-3.523
			c-0.075-0.55-0.371-0.881-0.234-1.643c0.139-0.486-0.291-1.543,0.234-1.643c1.481-0.399,3.574-0.184,5.4-0.235
			c0.971,4.899,1.071,10.669,1.409,16.201c0.739,5.053,0.284,11.299,1.644,15.731C81.696,59.678,81.665,61.213,81.709,62.822z
			 M84.526,64.465c-0.567-7.807-0.656-16.094-0.939-24.183c-0.534-7.84-1.211-15.538-2.817-22.306v-0.704
			c2.573,0.637,5.332,1.085,8.452,1.173c-1.135,15.817,1.789,29.484,2.113,44.612C89.736,64.197,87.146,65.067,84.526,64.465z
			 M110.587,37.698c0.831,0.412,1.21-0.789,1.409-0.235c-0.492,4.908-2.306,8.495-2.113,14.088c-1.144-0.107-2.75,0.246-3.521-0.234
			v-3.991c1.258-4.299,0.71-10.404,1.644-15.027c1.883,0.253,3.393-0.313,5.165,0.235c-0.197,1.525-0.521,2.922-0.939,4.227
			c-0.5-0.44-0.519-1.361-1.645-1.175c-0.337,0.131-0.572,0.366-0.704,0.704C109.68,37.198,110.457,37.124,110.587,37.698z
			 M112.701,51.551c-0.005-0.553,0.405-0.691,0.235-1.408c0.958,0.138,1.677,0.515,1.878,1.408H112.701z M4.931,87.475
			c-0.648-0.306-0.47-1.27-0.235-1.878C5.225,85.772,4.788,86.913,4.931,87.475z M5.87,92.875c-0.1-0.491,0.16-0.621,0.235-0.939
			C6.785,91.979,6.67,93.052,5.87,92.875z M7.278,89.354c0.413-1.043,1.174,0.592,1.878,0.704
			C8.393,90.881,7.815,89.533,7.278,89.354z M62.924,100.858c-2.677-0.016-4.919,0.403-7.748,0.235
			c-1.084-0.481-2.763-0.366-3.992-0.705c-4.738,0.271-8.783,1.235-13.618,1.409c-1.194,0.1-0.325-1.867-1.643-1.643
			c-1.284-0.268-0.89,1.145-1.409,1.643h-1.878c-0.08-1.797,0.107-3.863-1.173-4.461c-1.787,0.17-1.148,2.766-1.645,4.227
			c-0.273-0.432-1.531,0.124-1.174-0.939c0.137-0.763-0.159-1.092-0.234-1.644c-0.14-0.486,0.289-1.542-0.235-1.644
			c0.248-0.873-0.792-0.46-0.939-0.938c-1.688,0.348-1.395,2.675-1.409,4.695h-2.113c-0.483-0.691,0.049-2.397-0.94-2.583
			c-1.694-0.285-1.456,1.361-1.878,2.348c-0.961,0.102-1.503-0.217-2.113-0.47c-0.131-1.434,0.422-3.552-0.704-3.99
			c-1.378-0.283-1.604,0.587-1.878,1.408c-0.15,0.867,0.304,2.339-0.235,2.817c-1.614,0.206-0.692-2.125-1.408-2.817
			c-0.002-1.329-0.014-2.647-0.939-3.053c-1.381-0.05-1.395,1.267-1.409,2.583c-0.296,1.165,0.551,2.859-0.234,3.052
			c-1.257,0.163-0.591-1.601-1.174-2.112c-0.075-1.491,0.355-3.486-0.939-3.758c-1.642,0.159-1.392,2.209-1.409,3.992
			c-0.702-1.176-0.409-3.348-0.469-5.165c2.08-0.659,5.262-0.216,7.513-0.705c0.319,0.698,1.622,0.413,2.582,0.47
			c1.119,0.023,1.114-1.077,2.113-1.174c0.982,0.113,1.822,0.37,2.583,0.704c2.861-0.121,5.344,0.135,7.983,0.235
			c2.67-0.54,5.858-0.559,8.687-0.939c0.896-0.199,1.493-0.698,2.349-0.939c0.845-0.062,1.132,0.434,1.878,0.471
			c0.438-0.033,0.785-0.155,0.94-0.471c0.338,0.125,0.573-0.915,0.704-0.234c0.995-0.056,1.193,0.685,1.879,0.939
			c0.81-0.286,1.37-0.821,2.112-1.174c0.678-0.34,1.394-0.643,1.878-1.174c0.79-0.086,0.392,1.018,0.704,1.408
			c0.418,0.13,0.976,0.121,1.175,0.47h1.878c2.634,0.965,6.122,1.077,9.391,1.408c0.223,1.657,0.837,2.92,0.939,4.696
			C64.941,98.961,64.061,100.037,62.924,100.858z M20.661,85.362c0.251-0.532,0.713-0.853,1.409-0.939
			C21.982,85.121,21.37,86.001,20.661,85.362z M20.896,89.588c-0.512,0.042-0.747-0.192-0.704-0.705
			C20.704,88.841,20.939,89.076,20.896,89.588z M21.366,82.779c-0.554,0.072-0.438,0.815-1.174,0.705
			c-0.479,0.695-1.73,0.618-2.347,1.174c-1.804,0.623-3.399,1.453-5.165,2.112c-1.437-0.911-1.625-3.071-2.583-4.461
			c-0.012-1.028,0.127-1.908,0.705-2.347c0.677-0.683,0.555,0.636,1.174,0.704c0.069,0.633,0.987,0.421,1.173,0.939
			c2.971,0.311,4.088-1.234,5.635-2.349c0.392,0.313,0.365,1.044,0.705,1.409c0.414,0.212,0.727,0.524,0.939,0.939
			c0.413,0.135,1.379-0.284,1.408,0.234C22.27,82.254,21.775,82.567,21.366,82.779z M17.375,90.292H16.67
			c0.125-0.188,0.245-0.381,0.234-0.704C17.406,89.479,17.352,89.924,17.375,90.292z M15.026,87.945
			c-0.044,0.267-0.235,0.131-0.235,0C14.836,87.678,15.027,87.815,15.026,87.945z M12.679,88.883
			c-0.933,0.703-1.872-0.21-1.644-1.408C11.459,88.069,12.478,88.068,12.679,88.883z M22.541,89.823
			c0.187-0.528,1.573-0.773,1.408,0.235C23.37,90.089,22.817,90.093,22.541,89.823z M26.531,83.484
			c-0.029-0.599-0.341-0.911-0.938-0.939c0.044-0.973,1.24-0.795,1.408-1.644c1.041,1.186,0.044,3.174-0.47,4.227
			C25.859,84.792,27.169,83.854,26.531,83.484z M33.341,83.484c-0.729-0.29-1.518-0.517-1.644-1.409
			c1.113-0.173,1.614,0.265,2.583,0.234C34.472,83.206,33.148,82.586,33.341,83.484z M35.219,90.058h-1.174
			C34.133,89.429,35.294,88.957,35.219,90.058z M56.585,82.779c-0.873,1.005-2.413,1.343-3.288,2.349
			c-1.345,0.533-2.384,1.371-3.521,2.113c-1.281,0.52-2.04,1.561-3.288,2.113c-2.487-0.487-3.794-2.154-5.87-3.053
			c-0.842-0.645-1.35-1.623-2.583-1.879c-0.716-0.692-1.177-1.641-1.878-2.348c0.545-0.784,1.746-0.914,2.347-1.643
			c0.689,0.017,0.872,0.537,1.174,0.939c0.352,0.275,0.96,0.292,1.174,0.704c3.569,0.771,6.707-0.551,8.218-2.582
			c0.903,0.27,1.326,1.021,2.112,1.408c0.333-0.021,0.666-0.039,0.704,0.234c3.092,0.274,4.658-0.979,5.636-2.817
			c0.936-0.074,0.636,1.087,1.41,1.175c0.37,0.411,1.077,0.486,1.173,1.174C58.941,81.378,57.952,82.268,56.585,82.779z
			 M60.577,89.118c-0.372,0.582-1.643,0.096-2.113,0c-0.066-0.795-0.374-1.349-0.235-2.349
			C59.95,86.615,58.628,89.501,60.577,89.118z M40.854,88.179c-0.214,0.491-0.693,0.716-1.409,0.704
			c-0.271-0.277-0.266-0.829-0.234-1.408C40.12,87.348,40.178,88.073,40.854,88.179z M37.567,86.066v0.47h-0.469v-0.47H37.567z
			 M60.577,83.952c0.266-1.142,1.739-1.078,2.347-1.878c0.4-0.086,0.443,0.184,0.47,0.47c-0.396,0.386-0.291,1.273-0.704,1.644
			C61.955,84.14,60.967,84.346,60.577,83.952z M61.75,78.787c-0.17-0.533-0.706-0.701-1.173-0.938
			c-0.634-1.167-1.393-2.208-2.113-3.288c-1.909-0.344-1.986,1.146-3.053,1.644c-0.66,0.827-1.251,1.723-2.582,1.878
			c-0.55-0.467-1.539-0.495-1.409-1.643c-0.487-0.061-0.064-1.032-0.469-1.174c0.072-0.541-0.678-0.262-0.705-0.705
			c-1.38,0.106-1.623,1.351-2.113,2.348c-1.769,1.148-4.448,3.721-7.043,1.879c-0.455-0.828,0.11-1.05,0.235-1.879
			c-0.173-0.688-0.713-1.009-1.175-1.408c-0.687,0.096-0.95,0.613-1.408,0.939c-0.378,0.326-0.743,0.665-1.174,0.939
			c-0.614,0.872-1.76,1.214-2.582,1.878c-1.801,0.156-3.174-0.112-3.992-0.939c-0.312-0.705-0.239-1.796-0.235-2.817
			c-2.873,1.354-4.836,3.616-9.157,3.521c-0.213-0.412-0.864-0.388-0.94-0.939c-0.078-0.547-0.24-1.012-0.704-1.174
			c-2.002,0.581-3.292,1.875-6.104,1.645c-0.593-0.688-0.815-1.525-0.47-2.582c-0.923,0.016-1.296,0.581-1.878,0.938
			c-0.559,0.303-1.12,0.602-1.644,0.94c-1.201,0.263-2.641,1.354-3.991,0.704c-0.157-1.644,1.41-1.564,1.408-3.053
			c-0.574-0.482-1.545,0.637-2.348,0.704c-0.62,0.358-2.114,0.839-2.583,0c-0.623-0.74,0.434-1.304,0.704-1.878
			c0.657-0.36,1.325-0.711,1.879-1.174c1.464-0.57,3.166-0.904,4.226-1.879c1.007-0.011,1.782-0.252,2.348-0.704
			c6.604-0.188,13.048,1.032,19.723,0.47c1.771-0.15,5.02-0.371,7.513-0.234c0.916,0.258,2.187,0.161,3.053,0.469
			c5.177-0.168,9.256,0.762,14.557,0.471c2.706-0.582,5.48-1.095,8.687-1.175c0.21-0.183,0.53-0.252,0.939-0.235
			c0.132-0.338,0.367-0.572,0.705-0.703c1.58,0.297,3.781-0.025,3.991,1.643c-0.244,1.419-1.461,1.068-2.818,0.939
			c-0.403,0.575,0.644,1.27,0.705,2.113v2.817c-0.273,0.473-0.997,1.692-1.878,2.113c-0.361,0.173-0.721-0.045-0.94,0.235
			C64.124,79.544,63.12,78.983,61.75,78.787z M66.682,81.606c0.413,0.056,0.535,0.404,0.469,0.938
			c-0.544,0.075-0.901-0.038-1.174-0.235C65.905,81.768,66.655,82.049,66.682,81.606z M66.682,86.535
			c-0.018-1.19,0.83-1.518,0.938-2.583C68.207,84.784,67.622,86.451,66.682,86.535z M84.761,21.733
			c0.564,0.219,0.622,0.943,1.643,0.704c0.23-0.24,0.464-0.476,0.704-0.704c0.154-1.014-0.405-1.316-0.704-1.879
			C84.974,19.597,84.667,20.465,84.761,21.733z M82.882,21.733c-0.013,0.143-0.035,0.277-0.235,0.234v0.47h0.47
			C83.38,22.098,83.371,21.864,82.882,21.733z M84.526,27.367c0.953,0.093,1.636-0.086,1.644-0.94
			C85.885,24.672,83.381,25.859,84.526,27.367z M93.448,27.367c0.302,0.402,0.485,0.924,1.174,0.939
			c0.802-0.139,1.11-0.768,0.939-1.879C94.7,25.807,93.318,25.849,93.448,27.367z M77.952,27.133
			c-2.147-1.344-3.329,2.307-0.704,2.112C77.996,28.924,78.404,28.003,77.952,27.133z M76.309,30.655
			c-2.414-0.717-2.166,2.324-1.174,3.053h1.409c0.55-0.389,0.508-1.37,0.469-2.349C76.674,31.228,76.439,30.992,76.309,30.655z
			 M77.717,37.229c0.642,0.459,1.001,0.459,1.643,0C79.784,35.426,77.353,35.492,77.717,37.229z M41.793,46.856
			c-1.371,0.35-2.367,1.076-2.583,2.583c0.264,0.675,0.493,1.384,0.938,1.878c0.664-0.193,0.609,0.331,1.175,0.234
			c2.165-0.072,3.318-2.143,2.347-3.992C43.01,47.36,42.708,46.802,41.793,46.856z M41.089,49.439
			c0.214-0.412,0.435-0.816,1.173-0.705C42.28,49.438,41.573,49.925,41.089,49.439z M20.192,49.439
			c-1.406,0.981-1.972,3.938,0.235,4.46c1.275-0.445,2.548-0.895,3.287-1.878c0.073-0.854-0.038-1.527-0.235-2.113
			C22.547,49.287,21.534,49.111,20.192,49.439z M20.192,50.847c0.381-0.353,1.732-0.353,2.113,0
			C22.239,51.987,20.259,51.987,20.192,50.847z M30.054,50.847c-0.062,0.076-0.384-0.057-0.469,0
			c-0.649,0.431-0.555,1.326-1.174,1.644c-0.16,2.115,0.312,3.602,1.878,3.992c0.648,0.1,0.22-0.876,0.704-0.94
			c1.838,0.116,2.485-0.958,3.288-1.878c0.046-0.906,0.008-1.73-0.235-2.348C33.305,50.536,30.856,49.865,30.054,50.847z
			 M29.584,53.429c0.096-0.565-0.43-0.51-0.235-1.173c0.683-0.62,3.163-0.811,3.522,0.234C32.827,53.86,30.702,53.85,29.584,53.429z
			 M54.002,51.785c-0.434,1.719,1.489,2.401,2.349,1.41C56.398,51.744,54.979,50.873,54.002,51.785z M46.254,53.899
			c-0.376,2.215,1.853,2.59,2.818,2.349c0.313-0.078,0.699-0.056,0.938-0.235c0.194-0.145,0.084-0.503,0.235-0.703
			c0.076-0.102,0.426-0.102,0.47-0.235c0.261-0.789-0.056-1.539-0.235-2.583C49.009,51.266,46.504,51.965,46.254,53.899z
			 M47.663,54.134c-0.274-0.963,1.633-0.944,1.643-0.235C49.344,54.809,47.897,54.735,47.663,54.134z M14.557,52.96
			c-1.786-0.221-2.696,0.434-2.817,1.878c0.456,1.03,0.824,2.15,2.348,2.113c1.254-0.077,1.514-1.147,1.878-2.113
			C15.577,54.132,15.292,53.322,14.557,52.96z M13.148,54.369c0.371,0.02,0.896-0.113,0.939,0.234
			C14.344,55.428,12.648,55.233,13.148,54.369z M40.854,56.247c-0.03,0.579-0.035,1.132,0.235,1.408
			c0.579,0.032,1.131,0.036,1.408-0.235c0.17-0.716-0.24-0.854-0.235-1.408C41.684,55.982,41.131,55.977,40.854,56.247z
			 M58.464,56.483c-0.598,0.028-0.911,0.341-0.94,0.938c0.215,0.412,0.437,0.816,1.174,0.705c0.271-0.277,0.266-0.83,0.235-1.408
			C58.751,56.664,58.469,56.71,58.464,56.483z M79.83,82.544c1.538-0.105,0.764-2.522,2.583-2.349c0.111,1.04-0.324,1.168,0,1.879
			c-0.371,0.021-0.184,0.599-0.705,0.47c-0.413,0.057-0.535,0.404-0.47,0.939c1.042,3.028,4.051,4.089,8.218,3.991
			c4.025-0.593,7.229-2.007,8.922-4.931v-2.817c-0.375-0.329-0.6-0.809-0.705-1.409c-0.403-0.302-0.923-0.485-0.939-1.174
			c-0.961-0.135-1.111-1.081-2.113-1.173c-0.566-0.529-1.35-0.844-2.348-0.94c-1.809-0.69-3.945-0.352-6.104-0.234
			c-0.044,0.348-0.567,0.215-0.94,0.234c-0.746,0.742-2.278,0.696-2.817,1.644c-1.143,0.346-1.681,1.294-2.583,1.879
			c0.059,0.842-0.705,0.859-0.704,1.643C79.269,81.071,78.682,82.675,79.83,82.544z M91.57,79.257
			c0.721,0.296,1.679,0.356,1.878,1.174c-1.05-0.189-1.304,0.418-1.408,1.175C91.532,81.173,91.545,80.221,91.57,79.257z
			 M88.987,79.962c0.513,0.034,0.503,0.591,0.469,1.173c-0.088,0.654,0.894,1.43,0.235,1.879
			C88.289,83.164,89.286,80.913,88.987,79.962z"/>
	</g>
</g>
<g>
</g>
<g>
</g>
<g>
</g>
<g>
</g>
<g>
</g>
<g>
</g>
<g>
</g>
<g>
</g>
<g>
</g>
<g>
</g>
<g>
</g>
<g>
</g>
<g>
</g>
<g>
</g>
<g>
</g>
</svg>
