<svg width="64" height="64" viewBox="0 0 64 64" fill="none" xmlns="http://www.w3.org/2000/svg">
<path d="M31.9994 0C14.3268 0 0 14.3271 0 31.9994C0 49.6712 14.3268 64 31.9994 64C49.6721 64 64 49.6718 64 31.9994C63.9994 14.3271 49.6721 0 31.9994 0ZM42.9278 20.4693C42.9278 20.7747 42.6805 21.0226 42.3745 21.0226H34.5845V25.2094H42.374C42.6799 25.2094 42.9273 25.4572 42.9273 25.7627V33.5514C42.9273 33.8574 42.6799 34.1047 42.374 34.1047H35.1378V51.1972C35.1378 51.5032 34.8905 51.7505 34.5845 51.7505H27.2227C26.9168 51.7505 26.6694 51.5032 26.6694 51.1972V34.1053H21.6249C21.3189 34.1053 21.0716 33.858 21.0716 33.552V25.7632C21.0716 25.4578 21.3189 25.2099 21.6249 25.2099H26.6694V22.0517C26.6694 22.0063 26.675 21.9626 26.6849 21.9206C26.6894 17.4217 27.6516 12.2749 35.0222 12.2517C35.0382 12.2506 35.0554 12.2495 35.072 12.2495H42.374C42.6799 12.2495 42.9273 12.4973 42.9273 12.8028V20.4693H42.9278Z" fill="white"/>
</svg>
