<svg width="64" height="64" viewBox="0 0 64 64" fill="none" xmlns="http://www.w3.org/2000/svg">
<path d="M62.3184 11.0294C61.5023 8.92736 60.4142 7.14683 58.6337 5.36631C56.8532 3.58578 55.0726 2.49768 52.9706 1.6816C50.9428 0.89026 48.5935 0.34621 45.2056 0.197833C41.7929 0.049456 40.7048 0 32 0C23.2952 0 22.2071 0.0247265 18.7944 0.197833C15.3818 0.34621 13.0572 0.89026 11.0294 1.6816C8.92736 2.49768 7.14683 3.58578 5.36631 5.36631C3.58578 7.14683 2.49768 8.92736 1.68161 11.0294C0.890264 13.0572 0.346214 15.4065 0.197837 18.7944C0.0494598 22.2071 0 23.2952 0 32C0 40.7048 0.0247303 41.7929 0.197837 45.2056C0.346214 48.6182 0.890264 50.9428 1.68161 52.9706C2.49768 55.0726 3.58578 56.8532 5.36631 58.6337C7.14683 60.4142 8.92736 61.5023 11.0294 62.3184C13.0572 63.1097 15.4065 63.6538 18.7944 63.8022C22.2071 63.9505 23.2952 64 32 64C40.7048 64 41.7929 63.9753 45.2056 63.8022C48.6182 63.6538 50.9428 63.1097 52.9706 62.3184C55.0726 61.5023 56.8532 60.4142 58.6337 58.6337C60.4142 56.8532 61.5023 55.0726 62.3184 52.9706C63.1097 50.9428 63.6538 48.5935 63.8022 45.2056C63.9505 41.7929 64 40.7048 64 32C64 23.2952 63.9753 22.2071 63.8022 18.7944C63.6538 15.3818 63.1097 13.0572 62.3184 11.0294ZM58.0402 44.9335C57.8918 48.0495 57.3725 49.7558 56.9274 50.8686C56.3586 52.3524 55.6414 53.4405 54.5286 54.5533C53.4158 55.6662 52.3524 56.3586 50.8439 56.9521C49.7063 57.3972 48.0247 57.9165 44.9088 58.0649C41.5209 58.2133 40.5317 58.2628 31.9753 58.2628C23.4189 58.2628 22.4049 58.238 19.0417 58.0649C15.9258 57.9165 14.2195 57.3972 13.1066 56.9521C11.6229 56.3833 10.5348 55.6662 9.42195 54.5533C8.30912 53.4405 7.61669 52.3771 7.02319 50.8686C6.57806 49.7311 6.05874 48.0495 5.91036 44.9335C5.76198 41.5456 5.71252 40.5317 5.71252 32C5.71252 23.4683 5.73725 22.4297 5.91036 19.0665C6.05874 15.9505 6.57806 14.2442 7.02319 13.1314C7.59197 11.6476 8.30912 10.5595 9.42195 9.44668C10.5348 8.33385 11.5981 7.64142 13.1066 7.04791C14.2442 6.60278 15.9258 6.08346 19.0417 5.93509C22.4297 5.78671 23.4436 5.73725 31.9753 5.73725C40.507 5.73725 41.5456 5.76198 44.9088 5.93509C48.0247 6.08346 49.7311 6.60278 50.8439 7.04791C52.3277 7.61669 53.4158 8.33385 54.5286 9.44668C55.6414 10.5595 56.3338 11.6229 56.9274 13.1314C57.3725 14.2689 57.8918 15.9505 58.0402 19.0665C58.1886 22.4544 58.238 23.4683 58.238 32C58.238 40.5317 58.1886 41.5703 58.0402 44.9335Z" fill="white"/>
<path d="M31.9753 15.5549C22.8995 15.5549 15.5302 22.9243 15.5302 32C15.5302 41.0757 22.8995 48.4451 31.9753 48.4451C41.051 48.4451 48.4204 41.0757 48.4204 32C48.4204 22.9243 41.051 15.5549 31.9753 15.5549ZM31.9753 42.6832C26.0897 42.6832 21.2921 37.9104 21.2921 32C21.2921 26.1144 26.0649 21.3168 31.9753 21.3168C37.8856 21.3168 42.6584 26.0896 42.6584 32C42.6584 37.8856 37.8609 42.6832 31.9753 42.6832Z" fill="white"/>
<path d="M49.0634 18.7449C51.1803 18.7449 52.8964 17.0288 52.8964 14.9119C52.8964 12.7949 51.1803 11.0788 49.0634 11.0788C46.9464 11.0788 45.2303 12.7949 45.2303 14.9119C45.2303 17.0288 46.9464 18.7449 49.0634 18.7449Z" fill="white"/>
</svg>
