<svg width="64" height="64" viewBox="0 0 64 64" fill="none" xmlns="http://www.w3.org/2000/svg">
<path fill-rule="evenodd" clip-rule="evenodd" d="M31.9907 0C14.3497 0 0 14.3537 0 31.9997C0 38.9979 2.25686 45.488 6.09334 50.7559L2.10612 62.6451L14.4059 58.7141C19.4648 62.0627 25.5019 64 32.0093 64C49.6503 64 64 49.6458 64 32.0003C64 14.3543 49.6503 0.000528971 32.0093 0.000528971H31.9907V0ZM23.0571 16.2544C22.4366 14.7684 21.9664 14.7121 21.0264 14.6739C20.7063 14.6553 20.3496 14.6367 19.9542 14.6367C18.7313 14.6367 17.4526 14.994 16.6814 15.7841C15.7414 16.7435 13.4091 18.9818 13.4091 23.5723C13.4091 28.1627 16.7568 32.6023 17.2079 33.2235C17.6782 33.8436 23.7344 43.4004 33.1377 47.2953C40.4911 50.3429 42.6732 50.0604 44.3468 49.7031C46.7915 49.1764 49.8574 47.3697 50.6286 45.1881C51.3998 43.0054 51.3998 41.1429 51.1737 40.7479C50.9481 40.3529 50.3271 40.1278 49.387 39.6568C48.447 39.1864 43.8765 36.9289 43.0113 36.6278C42.1647 36.3082 41.3563 36.4213 40.7173 37.3244C39.8144 38.5849 38.9307 39.8644 38.2157 40.6353C37.6515 41.2374 36.7295 41.3128 35.9588 40.9926C34.9243 40.5605 32.0284 39.5437 28.4547 36.3645C25.6898 33.9005 23.8093 30.8343 23.2642 29.9126C22.7185 28.9724 23.2078 28.426 23.6399 27.9185C24.1102 27.335 24.5614 26.9214 25.0317 26.3756C25.5019 25.8303 25.7652 25.5479 26.0662 24.9081C26.3862 24.2874 26.1601 23.6477 25.9345 23.1772C25.7089 22.7068 23.8284 18.1164 23.0571 16.2544Z" fill="white"/>
</svg>
